<svg width="32" height="32" viewBox="0 0 32 32" fill="none" xmlns="http://www.w3.org/2000/svg">
<path d="M17.3708 2.6665C18.8708 2.6705 19.6321 2.6785 20.2895 2.69717L20.5481 2.7065C20.8468 2.71717 21.1415 2.7305 21.4975 2.7465C22.9161 2.81317 23.8841 3.03717 24.7335 3.3665C25.6135 3.70517 26.3548 4.16384 27.0961 4.90384C27.7741 5.57037 28.2987 6.37662 28.6335 7.2665C28.9628 8.11584 29.1868 9.08384 29.2535 10.5038C29.2695 10.8585 29.2828 11.1532 29.2935 11.4532L29.3015 11.7118C29.3215 12.3678 29.3295 13.1292 29.3321 14.6292L29.3335 15.6238V17.3705C29.3367 18.343 29.3265 19.3156 29.3028 20.2878L29.2948 20.5465C29.2841 20.8465 29.2708 21.1412 29.2548 21.4958C29.1881 22.9158 28.9615 23.8825 28.6335 24.7332C28.2997 25.6235 27.7749 26.43 27.0961 27.0958C26.4294 27.7736 25.6232 28.2982 24.7335 28.6332C23.8841 28.9625 22.9161 29.1865 21.4975 29.2532C21.1811 29.2681 20.8646 29.2814 20.5481 29.2932L20.2895 29.3012C19.6321 29.3198 18.8708 29.3292 17.3708 29.3318L16.3761 29.3332H14.6308C13.6578 29.3365 12.6848 29.3263 11.7121 29.3025L11.4535 29.2945C11.1369 29.2825 10.8205 29.2687 10.5041 29.2532C9.08545 29.1865 8.11745 28.9625 7.26678 28.6332C6.37701 28.299 5.57107 27.7743 4.90545 27.0958C4.22685 26.4296 3.70175 25.6233 3.36679 24.7332C3.03745 23.8838 2.81345 22.9158 2.74678 21.4958C2.73193 21.1795 2.7186 20.863 2.70678 20.5465L2.70012 20.2878C2.67555 19.3156 2.66444 18.3431 2.66678 17.3705V14.6292C2.66306 13.6566 2.67284 12.6841 2.69612 11.7118L2.70545 11.4532C2.71612 11.1532 2.72945 10.8585 2.74545 10.5038C2.81212 9.08384 3.03612 8.11717 3.36545 7.2665C3.70027 6.37571 4.22641 5.5692 4.90679 4.90384C5.57224 4.2258 6.37764 3.70115 7.26678 3.3665C8.11745 3.03717 9.08412 2.81317 10.5041 2.7465C10.8588 2.7305 11.1548 2.71717 11.4535 2.7065L11.7121 2.6985C12.6844 2.67481 13.6569 2.66459 14.6295 2.66784L17.3708 2.6665ZM16.0001 9.33317C14.232 9.33317 12.5363 10.0355 11.2861 11.2858C10.0358 12.536 9.33345 14.2317 9.33345 15.9998C9.33345 17.7679 10.0358 19.4636 11.2861 20.7139C12.5363 21.9641 14.232 22.6665 16.0001 22.6665C17.7682 22.6665 19.4639 21.9641 20.7142 20.7139C21.9644 19.4636 22.6668 17.7679 22.6668 15.9998C22.6668 14.2317 21.9644 12.536 20.7142 11.2858C19.4639 10.0355 17.7682 9.33317 16.0001 9.33317ZM16.0001 11.9998C16.5254 11.9998 17.0456 12.1031 17.5309 12.3041C18.0162 12.505 18.4572 12.7996 18.8287 13.1709C19.2002 13.5423 19.4949 13.9832 19.696 14.4685C19.8971 14.9538 20.0007 15.4739 20.0008 15.9992C20.0009 16.5245 19.8975 17.0446 19.6966 17.53C19.4956 18.0153 19.2011 18.4563 18.8297 18.8278C18.4583 19.1993 18.0174 19.494 17.5321 19.6951C17.0469 19.8962 16.5267 19.9998 16.0015 19.9998C14.9406 19.9998 13.9232 19.5784 13.173 18.8283C12.4229 18.0781 12.0015 17.0607 12.0015 15.9998C12.0015 14.939 12.4229 13.9216 13.173 13.1714C13.9232 12.4213 14.9406 11.9998 16.0015 11.9998M23.0015 7.33317C22.5594 7.33317 22.1355 7.50877 21.8229 7.82133C21.5104 8.13389 21.3348 8.55781 21.3348 8.99984C21.3348 9.44186 21.5104 9.86579 21.8229 10.1783C22.1355 10.4909 22.5594 10.6665 23.0015 10.6665C23.4435 10.6665 23.8674 10.4909 24.18 10.1783C24.4925 9.86579 24.6681 9.44186 24.6681 8.99984C24.6681 8.55781 24.4925 8.13389 24.18 7.82133C23.8674 7.50877 23.4435 7.33317 23.0015 7.33317Z" fill="#6750A4"/>
</svg>
