<svg width="34" height="34" viewBox="0 0 34 34" fill="none" xmlns="http://www.w3.org/2000/svg">
<path d="M20.2502 33.4845C19.8335 33.7067 19.4099 33.7415 18.9793 33.5887C18.5488 33.4359 18.2224 33.1512 18.0002 32.7345L15.5002 27.7345C15.2779 27.3179 15.2432 26.8942 15.396 26.4637C15.5488 26.0331 15.8335 25.7068 16.2502 25.4845C16.6668 25.2623 17.0905 25.2276 17.521 25.3804C17.9516 25.5331 18.278 25.8179 18.5002 26.2345L21.0002 31.2345C21.2224 31.6512 21.2571 32.0748 21.1043 32.5054C20.9516 32.9359 20.6668 33.2623 20.2502 33.4845ZM30.2502 33.4845C29.8335 33.7067 29.4099 33.7415 28.9793 33.5887C28.5488 33.4359 28.2224 33.1512 28.0002 32.7345L25.5002 27.7345C25.278 27.3179 25.2432 26.8942 25.396 26.4637C25.5488 26.0331 25.8335 25.7068 26.2502 25.4845C26.6668 25.2623 27.0905 25.2276 27.521 25.3804C27.9516 25.5331 28.278 25.8179 28.5002 26.2345L31.0002 31.2345C31.2224 31.6512 31.2571 32.0748 31.1043 32.5054C30.9516 32.9359 30.6668 33.2623 30.2502 33.4845ZM10.2502 33.4845C9.8335 33.7067 9.40989 33.7415 8.97933 33.5887C8.54878 33.4359 8.22239 33.1512 8.00017 32.7345L5.50017 27.7345C5.27794 27.3179 5.24322 26.8942 5.396 26.4637C5.54878 26.0331 5.8335 25.7068 6.25017 25.4845C6.66683 25.2623 7.09044 25.2276 7.521 25.3804C7.95156 25.5331 8.27795 25.8179 8.50017 26.2345L11.0002 31.2345C11.2224 31.6512 11.2571 32.0748 11.1043 32.5054C10.9516 32.9359 10.6668 33.2623 10.2502 33.4845ZM9.50017 23.6512C6.97239 23.6512 4.81267 22.7554 3.021 20.9637C1.22933 19.172 0.333496 17.0123 0.333496 14.4845C0.333496 12.179 1.09739 10.1651 2.62516 8.44287C4.15294 6.72065 6.04183 5.70676 8.29183 5.4012C9.18072 3.81787 10.396 2.57481 11.9377 1.67204C13.4793 0.76926 15.1668 0.317871 17.0002 0.317871C19.5002 0.317871 21.6738 1.11648 23.521 2.7137C25.3682 4.31093 26.4863 6.30398 26.8752 8.69287C28.7918 8.85953 30.403 9.6512 31.7085 11.0679C33.0141 12.4845 33.6668 14.179 33.6668 16.1512C33.6668 18.2345 32.9377 20.0054 31.4793 21.4637C30.021 22.922 28.2502 23.6512 26.1668 23.6512H9.50017Z" fill="white"/>
</svg>
