<svg width="32" height="32" viewBox="0 0 32 32" fill="none" xmlns="http://www.w3.org/2000/svg">
<path d="M17.8291 2.79196C14.64 2.35497 11.4003 3.08611 8.708 4.85051C6.01566 6.6149 4.05227 9.29347 3.18008 12.392C2.30789 15.4906 2.58575 18.8 3.96241 21.7098C5.33906 24.6195 7.72161 26.9332 10.6705 28.224C10.5903 27.2002 10.6631 26.1703 10.8865 25.168C11.1331 24.0493 12.6145 17.884 12.6145 17.884C12.3194 17.2228 12.172 16.5052 12.1825 15.7813C12.1825 13.8013 13.3251 12.324 14.7465 12.324C15.0018 12.3202 15.2549 12.3716 15.4887 12.4744C15.7224 12.5773 15.9313 12.7292 16.1011 12.92C16.2708 13.1108 16.3975 13.3358 16.4725 13.58C16.5476 13.8241 16.5691 14.0814 16.5358 14.3346C16.5358 15.5346 15.7651 17.3506 15.3625 19.0546C15.2829 19.3671 15.2778 19.694 15.3477 20.0088C15.4176 20.3236 15.5605 20.6176 15.7648 20.8671C15.9691 21.1166 16.2292 21.3146 16.5241 21.4451C16.819 21.5756 17.1404 21.6351 17.4625 21.6186C19.9918 21.6186 21.6891 18.3773 21.6891 14.5506C21.6891 11.616 19.7465 9.4213 16.1651 9.4213C15.3084 9.38801 14.4539 9.52916 13.6534 9.83619C12.8528 10.1432 12.1231 10.6097 11.5083 11.2074C10.8936 11.805 10.4067 12.5213 10.0773 13.3129C9.74783 14.1044 9.58265 14.9546 9.59179 15.812C9.55362 16.7631 9.86046 17.6959 10.4558 18.4386C10.567 18.5217 10.6483 18.6386 10.6872 18.7719C10.7262 18.9051 10.7208 19.0474 10.6718 19.1773C10.6105 19.4226 10.4558 20.008 10.3945 20.224C10.3815 20.2966 10.3517 20.3653 10.3074 20.4244C10.2632 20.4834 10.2057 20.5313 10.1395 20.5641C10.0734 20.5969 10.0005 20.6137 9.92666 20.6133C9.85283 20.6128 9.78015 20.595 9.71446 20.5613C7.86913 19.8226 6.99979 17.792 6.99979 15.4733C6.99979 11.6773 10.1785 7.1333 16.5385 7.1333C21.5998 7.1333 24.9638 10.836 24.9638 14.796C24.9638 20.008 22.0625 23.9266 17.7731 23.9266C17.132 23.9471 16.4961 23.8056 15.9242 23.5153C15.3523 23.2249 14.8629 22.795 14.5011 22.2653C14.5011 22.2653 13.7291 25.3533 13.5785 25.9373C13.2682 26.9462 12.8104 27.9037 12.2198 28.7786C13.4505 29.152 14.7291 29.3386 16.0145 29.3333C17.7658 29.3347 19.5002 28.9907 21.1184 28.3209C22.7366 27.6511 24.2067 26.6687 25.4447 25.4299C26.6827 24.1912 27.6643 22.7204 28.3331 21.1018C29.0019 19.4832 29.3449 17.7486 29.3425 15.9973C29.3411 12.7771 28.1746 9.66607 26.0584 7.23884C23.9422 4.8116 21.0191 3.23208 17.8291 2.79196Z" fill="#6750A4"/>
</svg>
