<svg width="34" height="36" viewBox="0 0 34 36" fill="none" xmlns="http://www.w3.org/2000/svg">
<path d="M7.82975 30.2221C7.32308 30.2221 6.89614 30.0472 6.54891 29.6975C6.20169 29.3478 6.02808 28.9196 6.02808 28.4129C6.02808 27.9063 6.20294 27.4793 6.55266 27.1321C6.90239 26.7849 7.33058 26.6113 7.83725 26.6113C8.34391 26.6113 8.77086 26.7861 9.11808 27.1358C9.4653 27.4856 9.63891 27.9137 9.63891 28.4204C9.63891 28.9271 9.46405 29.354 9.11433 29.7013C8.76461 30.0485 8.33641 30.2221 7.82975 30.2221ZM12.8297 35.5C12.3231 35.5 11.8961 35.3251 11.5489 34.9754C11.2017 34.6254 11.0281 34.1971 11.0281 33.6904C11.0281 33.1838 11.2029 32.7568 11.5527 32.4096C11.9024 32.0624 12.3306 31.8888 12.8372 31.8888C13.3439 31.8888 13.7709 32.0637 14.1181 32.4137C14.4653 32.7635 14.6389 33.1917 14.6389 33.6983C14.6389 34.205 14.4641 34.6319 14.1143 34.9792C13.7646 35.3264 13.3364 35.5 12.8297 35.5ZM17.8297 30.2221C17.3231 30.2221 16.8961 30.0472 16.5489 29.6975C16.2017 29.3478 16.0281 28.9196 16.0281 28.4129C16.0281 27.9063 16.2029 27.4793 16.5527 27.1321C16.9024 26.7849 17.3306 26.6113 17.8372 26.6113C18.3439 26.6113 18.7709 26.7861 19.1181 27.1358C19.4653 27.4856 19.6389 27.9137 19.6389 28.4204C19.6389 28.9271 19.4641 29.354 19.1143 29.7013C18.7646 30.0485 18.3364 30.2221 17.8297 30.2221ZM27.8297 30.2221C27.3231 30.2221 26.8961 30.0472 26.5489 29.6975C26.2017 29.3478 26.0281 28.9196 26.0281 28.4129C26.0281 27.9063 26.2029 27.4793 26.5527 27.1321C26.9024 26.7849 27.3306 26.6113 27.8372 26.6113C28.3439 26.6113 28.7709 26.7861 29.1181 27.1358C29.4653 27.4856 29.6389 27.9137 29.6389 28.4204C29.6389 28.9271 29.4641 29.354 29.1143 29.7013C28.7646 30.0485 28.3364 30.2221 27.8297 30.2221ZM22.8297 35.5C22.3231 35.5 21.8961 35.3251 21.5489 34.9754C21.2017 34.6254 21.0281 34.1971 21.0281 33.6904C21.0281 33.1838 21.2029 32.7568 21.5527 32.4096C21.9024 32.0624 22.3306 31.8888 22.8372 31.8888C23.3439 31.8888 23.7709 32.0637 24.1181 32.4137C24.4653 32.7635 24.6389 33.1917 24.6389 33.6983C24.6389 34.205 24.4641 34.6319 24.1143 34.9792C23.7646 35.3264 23.3364 35.5 22.8297 35.5ZM9.22225 23.2779C6.77113 23.2779 4.67697 22.4096 2.93975 20.6729C1.20225 18.9365 0.333496 16.8433 0.333496 14.3933C0.333496 12.1589 1.11127 10.1806 2.66683 8.45833C4.22239 6.73611 6.15294 5.76847 8.4585 5.55542C9.34739 3.9907 10.5349 2.75694 12.021 1.85417C13.5071 0.951389 15.1707 0.5 17.0118 0.5C19.5227 0.5 21.6553 1.29861 23.4097 2.89583C25.1645 4.49306 26.2363 6.47681 26.6252 8.84708C28.7271 8.97681 30.4261 9.73611 31.7222 11.125C33.0186 12.5139 33.6668 14.1539 33.6668 16.045C33.6668 18.0428 32.9646 19.7476 31.5602 21.1596C30.156 22.5718 28.4509 23.2779 26.4447 23.2779H9.22225Z" fill="white"/>
</svg>
