<svg xmlns="http://www.w3.org/2000/svg" width="25" height="24" fill="none" viewBox="0 0 25 24"><g clip-path="url(#a)"><mask id="b" width="25" height="24" x="0" y="0" maskUnits="userSpaceOnUse" style="mask-type:luminance"><path fill="#fff" d="M.333 0h24v24h-24z"/></mask><g mask="url(#b)"><path fill="#F7FCFF" fill-rule="evenodd" d="M.333 0h24v24h-24z" clip-rule="evenodd"/><path fill="#E31D1C" fill-rule="evenodd" d="M.333 15v2h24v-2zm0 3v2h24v-2zm0-11v2h24V7zm0 15v2h24v-2zm0-11v2h24v-2zm0-11v2h24V0zm0 4v2h24V4z" clip-rule="evenodd"/><path fill="#2E42A5" d="M.333 0h15v13h-15z"/><path fill="#F7FCFF" fill-rule="evenodd" d="M12.334 3h2l-1-1zm-2 0h-1l1-1 1 1zm-4 0h2l-1-1zm-5 0h-1l1-1 1 1zm3 0h-1l1-1 1 1zm-4 4h2l-1-1zm4 0h-1l1-1 1 1zm2 0h2l-1-1zm4 0h-1l1-1 1 1zm-10 4h2l-1-1zm4 0h-1l1-1 1 1zm2 0h2l-1-1zm4 0h-1l1-1 1 1zm3-4h-1l1-1 1 1zm-1 4h2l-1-1zm-9-6h-1l1-1 1 1zm2 0h2l-1-1zm4 0h-1l1-1 1 1zm-7 4h2l-1-1zm4 0h-1l1-1 1 1zm2 0h2l-1-1zm4-4h-1l1-1 1 1zm-1 4h2l-1-1z" clip-rule="evenodd"/></g></g><defs><clipPath id="a"><rect width="24" height="24" x="0.333496" fill="#fff" rx="12"/></clipPath></defs></svg>