<svg xmlns="http://www.w3.org/2000/svg" width="25" height="24" fill="none" viewBox="0 0 25 24"><g clip-path="url(#a)"><mask id="b" width="25" height="24" x="0" y="0" maskUnits="userSpaceOnUse" style="mask-type:luminance"><path fill="#fff" d="M.333 0h24v24h-24z"/></mask><g mask="url(#b)"><path fill="#FFB400" fill-rule="evenodd" d="M.333 0v24h24V0z" clip-rule="evenodd"/><mask id="c" width="25" height="24" x="0" y="0" maskUnits="userSpaceOnUse" style="mask-type:luminance"><path fill="#fff" fill-rule="evenodd" d="M.333 0v24h24V0z" clip-rule="evenodd"/></mask><g mask="url(#c)"><path fill="#C51918" fill-rule="evenodd" d="M.333 0v6h24V0zm0 18v6h24v-6z" clip-rule="evenodd"/><path fill="#F1F9FF" d="M4.09 10.272h.84v5.824h-.84z"/><path fill="#C88A02" fill-rule="evenodd" d="M5.265 9.264H3.753v.56h.252v.448h1.008v-.448h.252zm-.252 7.168h.252v.56H3.753v-.56h.252v-.448h1.008z" clip-rule="evenodd"/><path fill="#AD1619" fill-rule="evenodd" d="M4.51 9.376c.182 0 .2-.092.309-.229.083-.106.278-.238.278-.387a.6.6 0 0 0-.588-.616.6.6 0 0 0-.588.616c0 .166.135.276.236.387.107.117.186.229.352.229" clip-rule="evenodd"/><path fill="#005BBF" fill-rule="evenodd" d="M3.753 16.992h1.512v.896s-.189-.112-.378-.112-.378.112-.378.112-.189-.112-.378-.112-.378.112-.378.112z" clip-rule="evenodd"/><mask id="d" width="3" height="2" x="3" y="16" maskUnits="userSpaceOnUse" style="mask-type:luminance"><path fill="#fff" fill-rule="evenodd" d="M3.753 16.992h1.512v.896s-.189-.112-.378-.112-.378.112-.378.112-.189-.112-.378-.112-.378.112-.378.112z" clip-rule="evenodd"/></mask><g fill="#fff" mask="url(#d)"><path d="m3.74 17.712-.033-.107a.8.8 0 0 1 .41-.122c.088 0 .134.017.212.063.07.041.105.054.18.054a.3.3 0 0 0 .18-.054.36.36 0 0 1 .214-.063q.205 0 .41.122l-.034.107a.73.73 0 0 0-.376-.112.3.3 0 0 0-.18.054.36.36 0 0 1-.213.063.36.36 0 0 1-.214-.063.3.3 0 0 0-.18-.054.73.73 0 0 0-.376.112m0-.336-.033-.107a.8.8 0 0 1 .41-.122c.088 0 .134.017.212.063.07.041.105.054.18.054a.3.3 0 0 0 .18-.054.36.36 0 0 1 .214-.063q.205 0 .41.122l-.034.107a.73.73 0 0 0-.376-.112.3.3 0 0 0-.18.054.36.36 0 0 1-.213.063.36.36 0 0 1-.214-.063.3.3 0 0 0-.18-.054.73.73 0 0 0-.376.112"/></g><path fill="#F1F9FF" d="M12.322 10.272h.84v5.824h-.84z"/><path fill="#C88A02" fill-rule="evenodd" d="M13.497 9.264h-1.512v.56h.252v.448h1.008v-.448h.252zm-.252 7.168h.252v.56h-1.512v-.56h.252v-.448h1.008z" clip-rule="evenodd"/><path fill="#AD1619" fill-rule="evenodd" d="M12.742 9.376c.183 0 .201-.092.309-.229.084-.106.279-.238.279-.387a.6.6 0 0 0-.588-.616.603.603 0 0 0-.588.616c0 .166.134.276.236.387.107.117.185.229.352.229" clip-rule="evenodd"/><path fill="#005BBF" fill-rule="evenodd" d="M11.985 16.992h1.512v.896s-.189-.112-.378-.112-.378.112-.378.112-.189-.112-.378-.112-.378.112-.378.112z" clip-rule="evenodd"/><mask id="e" width="3" height="2" x="11" y="16" maskUnits="userSpaceOnUse" style="mask-type:luminance"><path fill="#fff" fill-rule="evenodd" d="M11.985 16.992h1.512v.896s-.189-.112-.378-.112-.378.112-.378.112-.189-.112-.378-.112-.378.112-.378.112z" clip-rule="evenodd"/></mask><g fill="#fff" mask="url(#e)"><path d="m11.972 17.712-.034-.107a.8.8 0 0 1 .41-.122c.089 0 .135.017.213.063.07.041.105.054.18.054a.3.3 0 0 0 .18-.054.36.36 0 0 1 .214-.063q.204 0 .41.122l-.034.107a.73.73 0 0 0-.376-.112.3.3 0 0 0-.18.054.36.36 0 0 1-.214.063.36.36 0 0 1-.213-.063.3.3 0 0 0-.18-.054.73.73 0 0 0-.377.112m.001-.336-.034-.107a.8.8 0 0 1 .41-.122c.089 0 .135.017.213.063.07.041.105.054.18.054a.3.3 0 0 0 .18-.054.36.36 0 0 1 .214-.063q.204 0 .41.122l-.034.107a.73.73 0 0 0-.376-.112.3.3 0 0 0-.18.054.36.36 0 0 1-.214.063.36.36 0 0 1-.213-.063.3.3 0 0 0-.18-.054.73.73 0 0 0-.377.112"/></g><path fill="#AD1619" fill-rule="evenodd" d="M4.075 15.68c.151-.245.236-.468.236-.704a.8.8 0 0 0-.092-.383l.01-.006c-.001 0 .166-.097.224-.134.108-.07.204-.142.296-.232.06-.058.14-.12.26-.207l.114-.08.03-.023.144-.105c.127-.098.21-.18.275-.288.152-.257.12-.605-.092-.798-.105-.095-.245-.149-.452-.192l-.042-.008-.253-.053q-.147-.03-.265-.058c.516-.114 1.254-.072 1.578.151l.308-.796c-.66-.455-2.167-.409-2.73.108-.412.379-.357.951.073 1.198.18.103.413.172.846.264a2 2 0 0 0-.189.162 1.2 1.2 0 0 1-.191.15l-.188.11v.001l-.024.014c-.35.212-.52.505-.469 1.035l.028.287.049.02zm-.433-.74v.003zm9.221.036c0 .236.085.46.236.704l.516-.567.05-.02.027-.287c.05-.53-.12-.823-.469-1.035l-.024-.014-.188-.112a1.2 1.2 0 0 1-.191-.149 2 2 0 0 0-.19-.162c.434-.092.667-.16.847-.264.43-.247.485-.82.072-1.198-.563-.517-2.069-.563-2.73-.108l.309.796c.324-.223 1.061-.265 1.578-.15q-.118.027-.265.057l-.253.053-.043.008c-.206.043-.346.098-.45.192-.214.193-.245.541-.093.798.064.109.148.19.274.288.041.031.085.064.144.105l.03.022h.001l.114.08c.12.088.2.15.26.208.092.09.187.163.295.232.059.037.226.134.225.134l.01.006a.8.8 0 0 0-.092.383" clip-rule="evenodd"/><path fill="#F1F9FF" d="m4.776 12.4.248.068v.493c-.264.281-.935.755-.935.755V12.4zm7.794 0-.249.068v.493c.264.281.935.755.935.755V12.4z"/><path fill="#AD1619" fill-rule="evenodd" d="M11.416 7.206v-.164q-.649-.62-1.357-.62-.681-.401-1.377-.312v-.003c-.698-.09-1.402.315-1.402.315-.71 0-1.357.62-1.357.62v.164l.847 1.135s.239 1.092 1.909.835v.003s1.105-.04 1.183-.075l.096-.039c.216-.084.463-.18.61-.724zM8.679 6.161c-.024.377-.162 2.654 0 3.007z" clip-rule="evenodd"/><path fill="#C88A02" fill-rule="evenodd" d="M6.57 8.15v-.004l-.596-.748.057-.081.56.701.014-.087a.5.5 0 0 0 .197.03V7.81l.124.09q.091.067.263.03c.085-.018.142-.149.16-.427l.038-.563.126.54c.058.243.145.35.269.35.12 0 .17-.058.175-.208l.015-.423.144.378c.052.136.123.198.224.198.145 0 .242-.161.242-.414h.171c0 .253.097.414.242.414.102 0 .173-.062.225-.198l.143-.378.015.423c.006.15.055.209.176.209.124 0 .21-.108.268-.352l.126-.54.038.564c.018.278.075.41.16.428q.172.036.263-.031l.124-.09v.152a.5.5 0 0 0 .198-.03l.026.163.62-.777.057.081-.77.967c-.113.276-.17.458-.17.534 0 .115-.225.184-.665.254a8 8 0 0 1-1.083.098h-.084a8 8 0 0 1-1.084-.098c-.44-.07-.665-.139-.665-.254a.3.3 0 0 0-.006-.054 1 1 0 0 1-.096-.31l-.067-.17-.17-.214zm4.128.018c-.137.032-.237.029-.29-.028a.5.5 0 0 1-.289.01c-.118-.025-.2-.13-.25-.303q-.097.165-.243.2c.537.1.914.244.914.244s-.01.106-.032.23q.036-.097.085-.217l.008-.014zm-1.326-.164a.3.3 0 0 1-.111-.134.4.4 0 0 1-.136.103q.127.013.247.03m-.544-.053a.45.45 0 0 1-.16-.188.45.45 0 0 1-.16.187l.116-.003h.068q.069 0 .136.004M6.8 8.28l-.078-.097q.142.02.205-.044a.5.5 0 0 0 .29.01c.117-.025.2-.13.249-.303a.4.4 0 0 0 .235.197 6 6 0 0 0-.9.238m1.407-.31A6 6 0 0 0 7.97 8a.3.3 0 0 0 .105-.13q.06.07.133.101m2.067.93c.058.037.106 0 .143-.07l-.006.053-.022.015a1 1 0 0 1-.125.048 4 4 0 0 1-.445.095 8 8 0 0 1-1.115.097 8 8 0 0 1-1.116-.097 4 4 0 0 1-.444-.095 1 1 0 0 1-.11-.04l.009-.006c.183-.114 1.397-.222 1.615-.24.219.018 1.432.126 1.616.24m.231-.02-.001.001z" clip-rule="evenodd"/><path fill="#005BBF" fill-rule="evenodd" d="M8.668 5.347c.14 0 .252-.15.252-.336 0-.185-.113-.336-.252-.336-.14 0-.252.15-.252.336s.113.336.252.336" clip-rule="evenodd"/><path fill="#C88A02" fill-rule="evenodd" d="M8.504 6.997a1 1 0 0 0 .024.102.25.25 0 0 0-.112-.027c-.116 0-.21.076-.21.168s.094.168.21.168.21-.075.21-.168c0 .093.094.168.21.168s.21-.075.21-.168c0-.092-.094-.168-.21-.168a.3.3 0 0 0-.083.014.6.6 0 0 0-.002-.153c-.022-.152-.095-.26-.164-.243-.068.018-.105.155-.083.307m.122.243v-.005zm-1.358-.03a1 1 0 0 1-.024-.101c-.022-.152.015-.29.083-.307.069-.018.142.09.164.243a.6.6 0 0 1 .002.153.3.3 0 0 1 .083-.014c.116 0 .21.076.21.168s-.094.168-.21.168-.21-.075-.21-.168v-.005.005c0 .093-.094.168-.21.168s-.21-.075-.21-.168c0-.092.094-.168.21-.168q.063 0 .112.027m2.631.103c-.01.092-.11.149-.225.127s-.2-.113-.19-.205c.009-.092.11-.149.225-.127a.3.3 0 0 1 .108.046 1 1 0 0 1-.013-.105c-.006-.154.045-.283.115-.288s.13.116.137.27a.6.6 0 0 1-.014.153.3.3 0 0 1 .083.002c.114.021.2.113.19.205s-.11.149-.226.127c-.114-.021-.2-.113-.19-.205m0 0v-.005zm.8.444c.102.073.212.065.245-.017l.001-.004q.015.021.036.03c.066.027.148-.07.182-.219.034-.148.007-.29-.06-.317-.066-.027-.147.071-.181.219a1 1 0 0 0-.015.105.4.4 0 0 0-.09-.093c-.102-.073-.212-.065-.244.016-.033.082.024.208.126.28m-4.122.035c-.102.072-.212.065-.244-.017L6.33 7.77a.1.1 0 0 1-.036.03c-.066.027-.148-.07-.182-.218s-.007-.29.06-.317c.066-.027.147.07.181.218a1 1 0 0 1 .015.106.4.4 0 0 1 .09-.094c.102-.073.212-.065.245.017.032.082-.024.207-.127.28m1.998-3.715h.175v.147h.114v.233h-.114v.467h.114v.233h-.405v-.233h.116v-.467h-.116v-.233h.116z" clip-rule="evenodd"/><path fill="#C88A02" d="M8.542 5.344h.335V6.8h-.336z"/><path fill="#fff" d="m7.19 5.588-.002.112c-.745-.018-1.172.127-1.28.416q-.17.447.065 1.093l-.076.05q-.252-.693-.065-1.193c.129-.343.58-.496 1.357-.478"/><path fill="#fff" d="m7.333 6.581-.043.096c-.162-.129-.243-.35-.243-.653 0-.437.169-.692.542-.868q.357-.166.976.134l-.029.105q-.594-.286-.92-.133c-.342.16-.485.378-.485.762q0 .398.202.557"/><path fill="#C88A02" d="m6.079 7.037-.159.075c-.164-.625-.117-1.049.164-1.232q.37-.24 1.084-.2l-.006.223q-.677-.035-1.004.179c-.185.12-.219.425-.08.955"/><path fill="#C88A02" d="M7.93 5.439c-.383 0-.541.124-.631.493-.058.234-.002.435.179.622l-.103.177a.89.89 0 0 1-.236-.869c.115-.47.34-.647.792-.647q.445-.001.687.314l.025.033v1.08h-.168v-.984q-.188-.219-.544-.22"/><path fill="#fff" d="m10.12 5.7.002.112c.745-.018 1.172.127 1.28.416q.17.448-.065 1.093l.075.05q.252-.693.065-1.193c-.128-.343-.58-.496-1.357-.478"/><path fill="#fff" d="M9.858 6.604 9.9 6.7c.162-.129.243-.35.243-.653 0-.436-.169-.692-.542-.867q-.357-.167-.976.133l.028.106q.596-.287.92-.134c.343.16.486.379.486.762 0 .267-.067.45-.202.557"/><path fill="#C88A02" d="m11.283 7.15.159.074c.164-.625.117-1.049-.164-1.232q-.371-.24-1.085-.2l.007.223q.676-.035 1.004.179c.185.12.219.425.079.955"/><path fill="#C88A02" d="M9.422 5.456c.384 0 .542.125.632.493.057.235.002.435-.18.622l.104.177a.89.89 0 0 0 .236-.868c-.115-.47-.34-.648-.792-.648q-.446 0-.687.315l-.025.033v1.08h.168v-.985q.186-.218.544-.219"/><path fill="#E1E5E8" fill-rule="evenodd" d="M5.938 9.264h5.46v6.54S10.992 18 8.668 18c-2.325 0-2.73-2.253-2.73-2.253z" clip-rule="evenodd" opacity="0.3"/><mask id="f" width="7" height="9" x="5" y="9" maskUnits="userSpaceOnUse" style="mask-type:luminance"><path fill="#fff" fill-rule="evenodd" d="M5.938 9.264h5.46v6.54S10.992 18 8.668 18c-2.325 0-2.73-2.253-2.73-2.253z" clip-rule="evenodd"/></mask><g mask="url(#f)"><path fill="#FFC034" d="M5.938 13.296H8.71v4.368H5.937z"/><path fill="#AD1619" d="M6.273 13.52h.336v4.144h-.336zm1.177 0h.336v4.144H7.45zm-.589 0h.336v4.144h-.336zm1.177 0h.336v4.144h-.336zm-2.1-4.368H8.71v4.256H5.937z"/><path fill="#AD1619" d="M8.625 13.184h2.772v4.256H8.625z"/><path fill="#F1F9FF" d="M8.625 9.264h2.94v4.144h-2.94z"/><path fill="#C88A02" fill-rule="evenodd" d="M7.113 9.6h.252v.93h.168v-.465h.252v.464h.252v.58h-.252v1.046h.252v.581H6.525v-.58h.252V11.11h-.252v-.58h.168v-.465h.252v.464h.168z" clip-rule="evenodd"/><path fill="#C88A02" d="m10.067 9.795.172-.245.362.45-.173.245z"/><path fill="#FFC034" fill-rule="evenodd" d="M11.103 16.14v-2.452h-2.1v2.432l.004.018c.106.604.468.91 1.046.91s.94-.298 1.047-.888zm-1.05.572c-.464 0-.717-.208-.798-.632v-2.056h1.596v2.075c-.08.41-.333.613-.798.613" clip-rule="evenodd"/><path fill="#FFC034" fill-rule="evenodd" d="M10.14 13.893h-.175v1.112l-.69-1-.123.15.624.906H9.21v.335h.579l-.637.925.124.152.69-1v1.299h.174v-1.183l.61.884.123-.152-.637-.925h.711v-.336h-.698l.624-.904-.123-.152-.61.884z" clip-rule="evenodd"/><path fill="#F1F9FF" fill-rule="evenodd" d="M10.445 17.443s-1.779.186-1.779-1.344c0 0-.017 1.344-1.875 1.344v1.207h3.654z" clip-rule="evenodd"/><path fill="#005BBF" fill-rule="evenodd" stroke="#AD1619" stroke-width="1.16667" d="M8.668 14.192c.348 0 .63-.401.63-.896s-.282-.896-.63-.896-.63.401-.63.896.282.896.63.896Z" clip-rule="evenodd"/></g></g></g></g><rect width="24" height="24" x="0.333496" fill="url(#g)" rx="12" style="mix-blend-mode:overlay"/><rect width="23" height="23" x="0.833496" y="0.5" stroke="#000" stroke-opacity="0.1" rx="11.5"/><defs><linearGradient id="g" x1="12.3335" x2="12.3335" y1="0" y2="24" gradientUnits="userSpaceOnUse"><stop stop-color="#fff" stop-opacity="0.7"/><stop offset="1" stop-opacity="0.3"/></linearGradient><clipPath id="a"><rect width="24" height="24" x="0.333496" fill="#fff" rx="12"/></clipPath></defs></svg>