<svg xmlns="http://www.w3.org/2000/svg" width="33" height="32" fill="none" viewBox="0 0 33 32"><mask id="a" width="27" height="29" x="3" y="2" maskUnits="userSpaceOnUse" style="mask-type:luminance"><path fill="#fff" d="M29.37 13.99H16.806v5.272h7.232c-.674 3.35-3.493 5.273-7.232 5.273-4.412 0-7.967-3.598-7.967-8.064s3.555-8.065 7.967-8.065c1.9 0 3.616.683 4.964 1.8l3.923-3.97c-2.39-2.11-5.455-3.412-8.887-3.412-7.477 0-13.483 6.079-13.483 13.647 0 7.567 6.006 13.647 13.483 13.647 6.742 0 12.87-4.963 12.87-13.647 0-.807-.122-1.675-.306-2.482"/></mask><g mask="url(#a)"><path fill="#FBBC05" d="M2.098 24.535V8.406l10.418 8.065z"/></g><mask id="b" width="27" height="29" x="3" y="2" maskUnits="userSpaceOnUse" style="mask-type:luminance"><path fill="#fff" d="M29.37 13.99H16.806v5.272h7.232c-.674 3.35-3.493 5.273-7.232 5.273-4.412 0-7.967-3.598-7.967-8.064s3.555-8.065 7.967-8.065c1.9 0 3.616.683 4.964 1.8l3.923-3.97c-2.39-2.11-5.455-3.412-8.887-3.412-7.477 0-13.483 6.079-13.483 13.647 0 7.567 6.006 13.647 13.483 13.647 6.742 0 12.87-4.963 12.87-13.647 0-.807-.122-1.675-.306-2.482"/></mask><g mask="url(#b)"><path fill="#EA4335" d="m2.098 8.406 10.418 8.065 4.29-3.784 14.709-2.42V1.583H2.098z"/></g><mask id="c" width="27" height="29" x="3" y="2" maskUnits="userSpaceOnUse" style="mask-type:luminance"><path fill="#fff" d="M29.37 13.99H16.806v5.272h7.232c-.674 3.35-3.493 5.273-7.232 5.273-4.412 0-7.967-3.598-7.967-8.064s3.555-8.065 7.967-8.065c1.9 0 3.616.683 4.964 1.8l3.923-3.97c-2.39-2.11-5.455-3.412-8.887-3.412-7.477 0-13.483 6.079-13.483 13.647 0 7.567 6.006 13.647 13.483 13.647 6.742 0 12.87-4.963 12.87-13.647 0-.807-.122-1.675-.306-2.482"/></mask><g mask="url(#c)"><path fill="#34A853" d="m2.098 24.535 18.385-14.268 4.842.62 6.19-9.304v29.775H2.098z"/></g><mask id="d" width="27" height="29" x="3" y="2" maskUnits="userSpaceOnUse" style="mask-type:luminance"><path fill="#fff" d="M29.37 13.99H16.806v5.272h7.232c-.674 3.35-3.493 5.273-7.232 5.273-4.412 0-7.967-3.598-7.967-8.064s3.555-8.065 7.967-8.065c1.9 0 3.616.683 4.964 1.8l3.923-3.97c-2.39-2.11-5.455-3.412-8.887-3.412-7.477 0-13.483 6.079-13.483 13.647 0 7.567 6.006 13.647 13.483 13.647 6.742 0 12.87-4.963 12.87-13.647 0-.807-.122-1.675-.306-2.482"/></mask><g mask="url(#d)"><path fill="#4285F4" d="m31.515 31.358-19-14.887-2.45-1.861 21.45-6.204z"/></g></svg>