<svg xmlns="http://www.w3.org/2000/svg" width="35" height="35" fill="none" viewBox="0 0 35 35"><path fill="#E10A14" d="M17.5.547C8.138.547.547 8.14.547 17.5c0 9.365 7.59 16.953 16.953 16.953S34.453 26.865 34.453 17.5C34.453 8.14 26.863.547 17.5.547m0 30.625c-7.556 0-13.672-6.114-13.672-13.672 0-7.553 6.116-13.672 13.672-13.672 7.553 0 13.672 6.116 13.672 13.672S25.058 31.172 17.5 31.172m7.331-17.445c0 4.583-4.95 4.654-4.95 6.348v.433a.82.82 0 0 1-.82.82H15.94a.82.82 0 0 1-.82-.82v-.592c0-2.444 1.852-3.42 3.252-4.205 1.2-.673 1.936-1.131 1.936-2.022 0-1.18-1.504-1.962-2.72-1.962-1.585 0-2.316.75-3.345 2.049a.82.82 0 0 1-1.14.145l-1.901-1.442a.82.82 0 0 1-.181-1.119c1.615-2.371 3.672-3.704 6.875-3.704 3.354 0 6.935 2.619 6.935 6.07m-4.46 11.43a2.874 2.874 0 0 1-2.871 2.87 2.874 2.874 0 0 1-2.871-2.87 2.874 2.874 0 0 1 2.871-2.872 2.874 2.874 0 0 1 2.871 2.871"/></svg>