<svg width="32" height="32" viewBox="0 0 32 32" fill="none" xmlns="http://www.w3.org/2000/svg">
<path d="M16 29C23.1797 29 29 23.1797 29 16C29 8.82034 23.1797 3.00004 16 3.00004C8.8203 3.00004 3 8.82034 3 16C3 23.1797 8.8203 29 16 29Z" fill="#3C5A9A"/>
<path d="M20.2265 6.99031H17.3467C15.6377 6.99031 13.7368 7.70909 13.7368 10.1863C13.7452 11.0495 13.7368 11.8762 13.7368 12.8065H11.7598V15.9526H13.798V25.0096H17.5434V15.8928H20.0154L20.2391 12.7977H17.4788C17.4788 12.7977 17.485 11.4208 17.4788 11.021C17.4788 10.042 18.4975 10.0981 18.5587 10.0981C19.0435 10.0981 19.986 10.0995 20.2279 10.0981V6.99031H20.2265Z" fill="white"/>
</svg>
