<svg width="25" height="24" viewBox="0 0 25 24" fill="none" xmlns="http://www.w3.org/2000/svg">
<g clip-path="url(#clip0_61819_60641)">
<mask id="mask0_61819_60641" style="mask-type:luminance" maskUnits="userSpaceOnUse" x="0" y="0" width="25" height="24">
<rect x="0.333496" width="24" height="24" fill="white"/>
</mask>
<g mask="url(#mask0_61819_60641)">
<path fill-rule="evenodd" clip-rule="evenodd" d="M0.333496 0H24.3335V24H0.333496V0Z" fill="#F7FCFF"/>
<path fill-rule="evenodd" clip-rule="evenodd" d="M0.333496 15V17H24.3335V15H0.333496Z" fill="#E31D1C"/>
<path fill-rule="evenodd" clip-rule="evenodd" d="M0.333496 18V20H24.3335V18H0.333496Z" fill="#E31D1C"/>
<path fill-rule="evenodd" clip-rule="evenodd" d="M0.333496 7V9H24.3335V7H0.333496Z" fill="#E31D1C"/>
<path fill-rule="evenodd" clip-rule="evenodd" d="M0.333496 22V24H24.3335V22H0.333496Z" fill="#E31D1C"/>
<path fill-rule="evenodd" clip-rule="evenodd" d="M0.333496 11V13H24.3335V11H0.333496Z" fill="#E31D1C"/>
<path fill-rule="evenodd" clip-rule="evenodd" d="M0.333496 0V2H24.3335V0H0.333496Z" fill="#E31D1C"/>
<path fill-rule="evenodd" clip-rule="evenodd" d="M0.333496 4V6H24.3335V4H0.333496Z" fill="#E31D1C"/>
<rect x="0.333496" width="15" height="13" fill="#2E42A5"/>
<path fill-rule="evenodd" clip-rule="evenodd" d="M12.3335 3H13.3335H14.3335L13.3335 2L12.3335 3ZM10.3335 3H9.3335L10.3335 2L11.3335 3H10.3335ZM6.3335 3H7.3335H8.3335L7.3335 2L6.3335 3ZM1.3335 3H0.333496L1.3335 2L2.3335 3H1.3335ZM4.3335 3H3.3335L4.3335 2L5.3335 3H4.3335ZM0.333496 7H1.3335H2.3335L1.3335 6L0.333496 7ZM4.3335 7H3.3335L4.3335 6L5.3335 7H4.3335ZM6.3335 7H7.3335H8.3335L7.3335 6L6.3335 7ZM10.3335 7H9.3335L10.3335 6L11.3335 7H10.3335ZM0.333496 11H1.3335H2.3335L1.3335 10L0.333496 11ZM4.3335 11H3.3335L4.3335 10L5.3335 11H4.3335ZM6.3335 11H7.3335H8.3335L7.3335 10L6.3335 11ZM10.3335 11H9.3335L10.3335 10L11.3335 11H10.3335ZM13.3335 7H12.3335L13.3335 6L14.3335 7H13.3335ZM12.3335 11H13.3335H14.3335L13.3335 10L12.3335 11ZM3.3335 5H2.3335L3.3335 4L4.3335 5H3.3335ZM5.3335 5H6.3335H7.3335L6.3335 4L5.3335 5ZM9.3335 5H8.3335L9.3335 4L10.3335 5H9.3335ZM2.3335 9H3.3335H4.3335L3.3335 8L2.3335 9ZM6.3335 9H5.3335L6.3335 8L7.3335 9H6.3335ZM8.3335 9H9.3335H10.3335L9.3335 8L8.3335 9ZM12.3335 5H11.3335L12.3335 4L13.3335 5H12.3335ZM11.3335 9H12.3335H13.3335L12.3335 8L11.3335 9Z" fill="#F7FCFF"/>
</g>
</g>
<defs>
<clipPath id="clip0_61819_60641">
<rect x="0.333496" width="24" height="24" rx="12" fill="white"/>
</clipPath>
</defs>
</svg>
