<svg width="25" height="24" viewBox="0 0 25 24" fill="none" xmlns="http://www.w3.org/2000/svg">
<g clip-path="url(#clip0_61979_1891)">
<mask id="mask0_61979_1891" style="mask-type:luminance" maskUnits="userSpaceOnUse" x="0" y="0" width="25" height="24">
<rect x="0.333496" width="24" height="24" fill="white"/>
</mask>
<g mask="url(#mask0_61979_1891)">
<path fill-rule="evenodd" clip-rule="evenodd" d="M0.333496 0V24H24.3335V0H0.333496Z" fill="#FFB400"/>
<mask id="mask1_61979_1891" style="mask-type:luminance" maskUnits="userSpaceOnUse" x="0" y="0" width="25" height="24">
<path fill-rule="evenodd" clip-rule="evenodd" d="M0.333496 0V24H24.3335V0H0.333496Z" fill="white"/>
</mask>
<g mask="url(#mask1_61979_1891)">
<path fill-rule="evenodd" clip-rule="evenodd" d="M0.333496 0V6H24.3335V0H0.333496Z" fill="#C51918"/>
<path fill-rule="evenodd" clip-rule="evenodd" d="M0.333496 18V24H24.3335V18H0.333496Z" fill="#C51918"/>
<rect x="4.08936" y="10.272" width="0.84" height="5.824" fill="#F1F9FF"/>
<path fill-rule="evenodd" clip-rule="evenodd" d="M5.26542 9.26399H3.75342V9.82399H4.00542V10.272H5.01342V9.82399H5.26542V9.26399Z" fill="#C88A02"/>
<path fill-rule="evenodd" clip-rule="evenodd" d="M5.01342 16.432H5.26542V16.992H3.75342V16.432H4.00542V15.984H5.01342V16.432Z" fill="#C88A02"/>
<path fill-rule="evenodd" clip-rule="evenodd" d="M4.50939 9.376C4.69219 9.376 4.71077 9.28422 4.81861 9.14715C4.90235 9.04071 5.09739 8.9087 5.09739 8.76C5.09739 8.41979 4.83413 8.144 4.50939 8.144C4.18464 8.144 3.92139 8.41979 3.92139 8.76C3.92139 8.92566 4.0557 9.03644 4.15725 9.14715C4.26424 9.26379 4.34278 9.376 4.50939 9.376Z" fill="#AD1619"/>
<path fill-rule="evenodd" clip-rule="evenodd" d="M3.75342 16.992H5.26542V17.888C5.26542 17.888 5.07642 17.776 4.88742 17.776C4.69842 17.776 4.50942 17.888 4.50942 17.888C4.50942 17.888 4.32042 17.776 4.13142 17.776C3.94242 17.776 3.75342 17.888 3.75342 17.888V16.992Z" fill="#005BBF"/>
<mask id="mask2_61979_1891" style="mask-type:luminance" maskUnits="userSpaceOnUse" x="3" y="16" width="3" height="2">
<path fill-rule="evenodd" clip-rule="evenodd" d="M3.75342 16.992H5.26542V17.888C5.26542 17.888 5.07642 17.776 4.88742 17.776C4.69842 17.776 4.50942 17.888 4.50942 17.888C4.50942 17.888 4.32042 17.776 4.13142 17.776C3.94242 17.776 3.75342 17.888 3.75342 17.888V16.992Z" fill="white"/>
</mask>
<g mask="url(#mask2_61979_1891)">
<path d="M3.73954 17.7119L3.70654 17.6046C3.84273 17.5238 3.9794 17.4833 4.11627 17.4833C4.2047 17.4833 4.25088 17.4997 4.32939 17.5463C4.39834 17.5872 4.43408 17.6 4.5095 17.6C4.58491 17.6 4.62065 17.5872 4.68961 17.5463C4.76812 17.4997 4.81429 17.4833 4.90273 17.4833C5.0396 17.4833 5.17627 17.5238 5.31245 17.6046L5.27945 17.7119C5.15348 17.6372 5.028 17.6 4.90273 17.6C4.82731 17.6 4.79157 17.6127 4.72261 17.6536C4.64411 17.7002 4.59793 17.7166 4.5095 17.7166C4.42107 17.7166 4.37489 17.7002 4.29638 17.6536C4.22743 17.6127 4.19168 17.6 4.11627 17.6C3.99099 17.6 3.86551 17.6372 3.73954 17.7119Z" fill="white"/>
<path d="M3.73954 17.3759L3.70654 17.2686C3.84273 17.1878 3.9794 17.1473 4.11627 17.1473C4.2047 17.1473 4.25088 17.1637 4.32939 17.2103C4.39834 17.2512 4.43408 17.2639 4.5095 17.2639C4.58491 17.2639 4.62065 17.2512 4.68961 17.2103C4.76812 17.1637 4.81429 17.1473 4.90273 17.1473C5.0396 17.1473 5.17627 17.1878 5.31245 17.2686L5.27945 17.3759C5.15348 17.3012 5.028 17.2639 4.90273 17.2639C4.82731 17.2639 4.79157 17.2767 4.72261 17.3176C4.64411 17.3642 4.59793 17.3806 4.5095 17.3806C4.42107 17.3806 4.37489 17.3642 4.29638 17.3176C4.22743 17.2767 4.19168 17.2639 4.11627 17.2639C3.99099 17.2639 3.86551 17.3012 3.73954 17.3759Z" fill="white"/>
</g>
<rect x="12.3218" y="10.272" width="0.84" height="5.824" fill="#F1F9FF"/>
<path fill-rule="evenodd" clip-rule="evenodd" d="M13.4974 9.26399H11.9854V9.82399H12.2374V10.272H13.2454V9.82399H13.4974V9.26399Z" fill="#C88A02"/>
<path fill-rule="evenodd" clip-rule="evenodd" d="M13.2454 16.432H13.4974V16.992H11.9854V16.432H12.2374V15.984H13.2454V16.432Z" fill="#C88A02"/>
<path fill-rule="evenodd" clip-rule="evenodd" d="M12.7418 9.376C12.9246 9.376 12.9432 9.28422 13.051 9.14715C13.1348 9.04071 13.3298 8.9087 13.3298 8.76C13.3298 8.41979 13.0666 8.144 12.7418 8.144C12.4171 8.144 12.1538 8.41979 12.1538 8.76C12.1538 8.92566 12.2881 9.03644 12.3897 9.14715C12.4967 9.26379 12.5752 9.376 12.7418 9.376Z" fill="#AD1619"/>
<path fill-rule="evenodd" clip-rule="evenodd" d="M11.9854 16.992H13.4974V17.888C13.4974 17.888 13.3084 17.776 13.1194 17.776C12.9304 17.776 12.7414 17.888 12.7414 17.888C12.7414 17.888 12.5524 17.776 12.3634 17.776C12.1744 17.776 11.9854 17.888 11.9854 17.888V16.992Z" fill="#005BBF"/>
<mask id="mask3_61979_1891" style="mask-type:luminance" maskUnits="userSpaceOnUse" x="11" y="16" width="3" height="2">
<path fill-rule="evenodd" clip-rule="evenodd" d="M11.9854 16.992H13.4974V17.888C13.4974 17.888 13.3084 17.776 13.1194 17.776C12.9304 17.776 12.7414 17.888 12.7414 17.888C12.7414 17.888 12.5524 17.776 12.3634 17.776C12.1744 17.776 11.9854 17.888 11.9854 17.888V16.992Z" fill="white"/>
</mask>
<g mask="url(#mask3_61979_1891)">
<path d="M11.9715 17.7119L11.9385 17.6046C12.0747 17.5238 12.2113 17.4833 12.3482 17.4833C12.4366 17.4833 12.4828 17.4997 12.5613 17.5463C12.6303 17.5872 12.666 17.6 12.7414 17.6C12.8168 17.6 12.8526 17.5872 12.9215 17.5463C13 17.4997 13.0462 17.4833 13.1347 17.4833C13.2715 17.4833 13.4082 17.5238 13.5444 17.6046L13.5114 17.7119C13.3854 17.6372 13.2599 17.6 13.1347 17.6C13.0592 17.6 13.0235 17.6127 12.9545 17.6536C12.876 17.7002 12.8299 17.7166 12.7414 17.7166C12.653 17.7166 12.6068 17.7002 12.5283 17.6536C12.4594 17.6127 12.4236 17.6 12.3482 17.6C12.2229 17.6 12.0974 17.6372 11.9715 17.7119Z" fill="white"/>
<path d="M11.9715 17.3759L11.9385 17.2686C12.0747 17.1878 12.2113 17.1473 12.3482 17.1473C12.4366 17.1473 12.4828 17.1637 12.5613 17.2103C12.6303 17.2512 12.666 17.2639 12.7414 17.2639C12.8168 17.2639 12.8526 17.2512 12.9215 17.2103C13 17.1637 13.0462 17.1473 13.1347 17.1473C13.2715 17.1473 13.4082 17.1878 13.5444 17.2686L13.5114 17.3759C13.3854 17.3012 13.2599 17.2639 13.1347 17.2639C13.0592 17.2639 13.0235 17.2767 12.9545 17.3176C12.876 17.3642 12.8299 17.3806 12.7414 17.3806C12.653 17.3806 12.6068 17.3642 12.5283 17.3176C12.4594 17.2767 12.4236 17.2639 12.3482 17.2639C12.2229 17.2639 12.0974 17.3012 11.9715 17.3759Z" fill="white"/>
</g>
<path fill-rule="evenodd" clip-rule="evenodd" d="M4.07456 15.6799C4.226 15.4351 4.31069 15.2124 4.31069 14.9758C4.31069 14.8267 4.2774 14.6979 4.21908 14.5926L4.22894 14.5867C4.22803 14.5873 4.39508 14.4902 4.45324 14.453C4.56135 14.3839 4.6566 14.3107 4.74946 14.2206C4.80875 14.1632 4.88819 14.1005 5.00929 14.0138C5.03022 13.9989 5.08694 13.9587 5.12312 13.9331L5.15381 13.9114C5.21266 13.8695 5.25649 13.8374 5.29721 13.8059C5.42409 13.7078 5.50793 13.6267 5.57206 13.5183C5.72395 13.2615 5.69241 12.9133 5.47957 12.7201C5.37529 12.6255 5.23457 12.5711 5.0283 12.5284L4.98564 12.5196L4.98557 12.5196C4.91508 12.505 4.77976 12.4771 4.73328 12.4674C4.63457 12.4468 4.5465 12.4275 4.46796 12.4092C4.98439 12.2946 5.72182 12.3367 6.04619 12.56L6.35448 11.7639C5.69347 11.3088 4.18738 11.3553 3.62478 11.8719C3.21213 12.2508 3.2675 12.8235 3.69684 13.0702C3.87624 13.1732 4.11012 13.2416 4.5429 13.3343C4.47038 13.3904 4.41025 13.4417 4.35422 13.496C4.29741 13.5511 4.23653 13.5979 4.16269 13.6451C4.12739 13.6677 4.02288 13.7288 3.97493 13.7569L3.97489 13.7569L3.97486 13.757L3.95078 13.7711C3.60107 13.9831 3.43134 14.2764 3.48206 14.8059L3.50951 15.0925L3.55876 15.1127L4.07456 15.6799ZM3.64227 14.9392L3.64121 14.9434L3.64202 14.9404L3.64227 14.9392ZM12.8631 14.9758C12.8631 15.2124 12.9477 15.4351 13.0992 15.6799L13.615 15.1127L13.6642 15.0925L13.6917 14.8059C13.7424 14.2764 13.5727 13.9831 13.223 13.7711L13.1989 13.757C13.151 13.7289 13.0464 13.6677 13.0111 13.6451C12.9372 13.5979 12.8763 13.5511 12.8195 13.496C12.7635 13.4417 12.7034 13.3904 12.6308 13.3343C13.0636 13.2416 13.2975 13.1732 13.4769 13.0702C13.9062 12.8235 13.9616 12.2508 13.549 11.8719C12.9864 11.3553 11.4803 11.3088 10.8193 11.7639L11.1276 12.56C11.4519 12.3367 12.1894 12.2946 12.7058 12.4092C12.6272 12.4275 12.5392 12.4468 12.4405 12.4674C12.394 12.4771 12.2586 12.505 12.1882 12.5196L12.1454 12.5284C11.9392 12.5711 11.7985 12.6255 11.6942 12.7201C11.4813 12.9133 11.4498 13.2615 11.6017 13.5183C11.6658 13.6267 11.7497 13.7078 11.8765 13.8059C11.9173 13.8374 11.9611 13.8695 12.0199 13.9114L12.0507 13.9332L12.0511 13.9334C12.0873 13.9591 12.1436 13.9989 12.1645 14.0138C12.2856 14.1005 12.365 14.1632 12.4243 14.2206C12.5171 14.3107 12.6124 14.3839 12.7205 14.453C12.7787 14.4902 12.9457 14.5873 12.9448 14.5867L12.9547 14.5926C12.8963 14.6979 12.8631 14.8267 12.8631 14.9758Z" fill="#AD1619"/>
<path d="M4.77587 12.4L5.02381 12.4684V12.9611C4.75974 13.2421 4.08936 13.7156 4.08936 13.7156V12.4H4.77587Z" fill="#F1F9FF"/>
<path d="M12.5693 12.4L12.3214 12.4684V12.9611C12.5855 13.2421 13.2559 13.7156 13.2559 13.7156V12.4H12.5693Z" fill="#F1F9FF"/>
<path fill-rule="evenodd" clip-rule="evenodd" d="M11.4158 7.20598V7.042C10.9838 6.62855 10.5313 6.42183 10.0585 6.42183C9.60516 6.15435 9.14631 6.05053 8.68194 6.11035C8.68206 6.10844 8.68213 6.10747 8.68213 6.10747C7.9839 6.01637 7.28022 6.42183 7.28022 6.42183C6.57094 6.42183 5.92285 7.042 5.92285 7.042V7.20598L6.77007 8.34051C6.77007 8.34051 7.00855 9.4325 8.67868 9.17586V9.17863C8.67868 9.17863 9.78444 9.13839 9.86214 9.10393C9.89297 9.09026 9.92494 9.07781 9.95761 9.06509C10.1742 8.98078 10.4214 8.88454 10.5686 8.34051L11.4158 7.20598ZM8.67868 6.16053C8.65456 6.53828 8.5169 8.81517 8.67868 9.16818V6.16053Z" fill="#AD1619"/>
<path fill-rule="evenodd" clip-rule="evenodd" d="M6.5691 8.14958L6.56967 8.14613L5.97363 7.39844L6.03119 7.31687L6.59049 8.01847L6.6048 7.9307C6.6963 7.95723 6.76318 7.96698 6.80216 7.96145V7.80926L6.92614 7.89872C6.98712 7.94272 7.07445 7.95455 7.18947 7.9296C7.27396 7.91127 7.33096 7.78045 7.3496 7.50168L7.38723 6.93892L7.51346 7.47826C7.57057 7.72232 7.65771 7.82991 7.78176 7.82991C7.90292 7.82991 7.95162 7.77069 7.957 7.62141L7.97224 7.19803L8.11584 7.57619C8.16757 7.71242 8.23892 7.77423 8.34036 7.77423C8.48545 7.77423 8.58236 7.61296 8.58236 7.35991H8.5851H8.75036H8.7531C8.7531 7.61296 8.85002 7.77423 8.99511 7.77423C9.09655 7.77423 9.16789 7.71242 9.21963 7.57619L9.36322 7.19803L9.37847 7.62141C9.38385 7.77069 9.43255 7.82991 9.55371 7.82991C9.67776 7.82991 9.76489 7.72232 9.82201 7.47826L9.94824 6.93892L9.98587 7.50168C10.0045 7.78045 10.0615 7.91127 10.146 7.9296C10.261 7.95455 10.3483 7.94272 10.4093 7.89872L10.5333 7.80926V7.96145C10.5723 7.96698 10.6392 7.95723 10.7307 7.9307L10.7572 8.09356L11.3764 7.31687L11.4339 7.39844L10.6635 8.36496C10.5511 8.64099 10.4944 8.82318 10.4944 8.89886C10.4944 9.01432 10.2692 9.08285 9.82946 9.15324C9.485 9.20838 9.07847 9.2454 8.74594 9.25093V9.25165L8.70379 9.25146L8.66163 9.25165V9.25093C8.3291 9.2454 7.92258 9.20838 7.57812 9.15324C7.13842 9.08285 6.91313 9.01432 6.91313 8.89886C6.91313 8.88454 6.9111 8.86641 6.90706 8.84456C6.86272 8.76927 6.83154 8.64611 6.8108 8.53502C6.79134 8.48306 6.7691 8.42633 6.74411 8.36496L6.57341 8.15083L6.5691 8.14958ZM10.6982 8.16762C10.5606 8.20009 10.4613 8.19681 10.4086 8.13958C10.3261 8.17157 10.2294 8.17464 10.119 8.15069C10.0011 8.1251 9.91896 8.02051 9.86954 7.84701C9.80503 7.9566 9.72346 8.02425 9.62575 8.04612C10.1633 8.14777 10.5398 8.29064 10.5398 8.29064C10.5398 8.29064 10.5305 8.39679 10.508 8.52159C10.5319 8.45626 10.5602 8.38366 10.5929 8.30354L10.601 8.28954L10.6982 8.16762ZM9.3721 8.00355C9.32534 7.97258 9.28801 7.92767 9.26102 7.86979C9.22094 7.91698 9.17536 7.95149 9.12474 7.97279C9.20926 7.98141 9.2919 7.99182 9.3721 8.00355ZM8.8282 7.951C8.76277 7.91068 8.70836 7.84612 8.66773 7.76339C8.62739 7.84553 8.57347 7.90977 8.50865 7.95014C8.54705 7.94861 8.58567 7.94754 8.62447 7.94696V7.94645L8.65816 7.94658L8.69184 7.94645V7.94696C8.73757 7.94764 8.78305 7.94901 8.8282 7.951ZM6.80046 8.28187L6.72214 8.18363C6.81616 8.19606 6.88574 8.18426 6.92689 8.13958C7.00934 8.17157 7.10604 8.17464 7.21646 8.15069C7.33438 8.1251 7.41651 8.02051 7.46592 7.84701C7.52857 7.95343 7.60729 8.0203 7.70127 8.04411C7.2378 8.13093 6.89202 8.24905 6.80046 8.28187ZM8.20708 7.97123C8.1257 7.97929 8.04602 7.98904 7.96854 8.00004C8.01288 7.96923 8.04846 7.92552 8.07444 7.86979C8.11356 7.91584 8.15791 7.94983 8.20708 7.97123ZM10.2736 8.90105C10.3324 8.93777 10.3796 8.90114 10.4169 8.83082C10.4137 8.85025 10.4117 8.8678 10.4109 8.88353C10.4059 8.88783 10.3984 8.89301 10.3885 8.89856C10.3608 8.91407 10.3185 8.9306 10.2636 8.94732C10.1555 8.98018 10.0017 9.01286 9.81945 9.04204C9.46351 9.09902 9.04026 9.13652 8.70379 9.13946C8.36731 9.13652 7.94407 9.09902 7.58813 9.04204C7.40586 9.01286 7.25205 8.98018 7.144 8.94732C7.09793 8.9333 7.06078 8.91943 7.03368 8.90617C7.03666 8.90466 7.03967 8.90295 7.04272 8.90105C7.22622 8.78657 8.43964 8.67913 8.65816 8.66059C8.87667 8.67913 10.0901 8.78657 10.2736 8.90105ZM10.505 8.88053L10.5039 8.88219L10.5045 8.88107L10.505 8.88053Z" fill="#C88A02"/>
<path fill-rule="evenodd" clip-rule="evenodd" d="M8.66802 5.34708C8.80719 5.34708 8.92002 5.19665 8.92002 5.01108C8.92002 4.82551 8.80719 4.67508 8.66802 4.67508C8.52884 4.67508 8.41602 4.82551 8.41602 5.01108C8.41602 5.19665 8.52884 5.34708 8.66802 5.34708Z" fill="#005BBF"/>
<path fill-rule="evenodd" clip-rule="evenodd" d="M8.50387 6.9968C8.50925 7.03368 8.51765 7.06801 8.52826 7.09861C8.49571 7.08203 8.45707 7.07243 8.41563 7.07243C8.29965 7.07243 8.20563 7.14764 8.20563 7.24043C8.20563 7.33321 8.29965 7.40843 8.41563 7.40843C8.53161 7.40843 8.62563 7.33321 8.62563 7.24043C8.62563 7.33321 8.71965 7.40843 8.83563 7.40843C8.95161 7.40843 9.04563 7.33321 9.04563 7.24043C9.04563 7.14764 8.95161 7.07243 8.83563 7.07243C8.80643 7.07243 8.77863 7.07719 8.75336 7.08581C8.75945 7.03988 8.75919 6.98721 8.75124 6.93269C8.72911 6.78089 8.6558 6.67219 8.58749 6.68989C8.51918 6.7076 8.48174 6.84501 8.50387 6.9968ZM8.62563 7.24043L8.62553 7.2353L8.62572 7.23539L8.62563 7.24043ZM7.26826 7.21061C7.25765 7.18001 7.24925 7.14568 7.24387 7.1088C7.22174 6.95701 7.25918 6.8196 7.32749 6.80189C7.3958 6.78419 7.46911 6.89289 7.49124 7.04469C7.49919 7.09921 7.49946 7.15188 7.49337 7.19781C7.51863 7.18919 7.54643 7.18443 7.57563 7.18443C7.69161 7.18443 7.78563 7.25964 7.78563 7.35243C7.78563 7.44521 7.69161 7.52043 7.57563 7.52043C7.45965 7.52043 7.36563 7.44521 7.36563 7.35243L7.36572 7.34739L7.36553 7.3473L7.36563 7.35243C7.36563 7.44521 7.27161 7.52043 7.15563 7.52043C7.03965 7.52043 6.94563 7.44521 6.94563 7.35243C6.94563 7.25964 7.03965 7.18443 7.15563 7.18443C7.19707 7.18443 7.23571 7.19403 7.26826 7.21061ZM9.89908 7.31299C9.88939 7.40487 9.78844 7.46191 9.67358 7.44038C9.55873 7.41886 9.47348 7.32693 9.48316 7.23505C9.49285 7.14317 9.5938 7.08613 9.70866 7.10765C9.7497 7.11535 9.78696 7.13203 9.81746 7.15448C9.81014 7.12221 9.80541 7.08666 9.80394 7.04914C9.79787 6.89472 9.84928 6.76559 9.91877 6.76073C9.98827 6.75588 10.0495 6.87713 10.0556 7.03156C10.0578 7.08702 10.0525 7.13922 10.0417 7.18358C10.0676 7.17973 10.0957 7.18017 10.1246 7.18559C10.2394 7.20711 10.3247 7.29904 10.315 7.39093C10.3053 7.48281 10.2043 7.53984 10.0895 7.51832C9.97465 7.4968 9.88939 7.40487 9.89908 7.31299ZM9.89908 7.31299L9.89952 7.30789L9.89969 7.30801L9.89908 7.31299ZM10.6989 7.75724C10.8013 7.82984 10.9108 7.82228 10.9435 7.74036L10.9452 7.73577C10.9553 7.75001 10.9672 7.76037 10.9808 7.76592C11.0474 7.79305 11.1288 7.69516 11.1627 7.54728C11.1966 7.39939 11.1702 7.25752 11.1036 7.23039C11.0371 7.20327 10.9556 7.30116 10.9217 7.44904C10.9135 7.48496 10.9088 7.52053 10.9074 7.55419C10.8845 7.51918 10.8538 7.48651 10.8172 7.46057C10.7148 7.38797 10.6053 7.39553 10.5726 7.47746C10.54 7.55938 10.5965 7.68464 10.6989 7.75724ZM6.57724 7.79155C6.47484 7.86415 6.36534 7.85659 6.33267 7.77467C6.33206 7.77315 6.33149 7.77163 6.33095 7.77008C6.32086 7.78432 6.30892 7.79468 6.2953 7.80023C6.22875 7.82736 6.14731 7.72947 6.1134 7.58159C6.07949 7.4337 6.10595 7.29183 6.1725 7.2647C6.23905 7.23757 6.32048 7.33547 6.35439 7.48335C6.36263 7.51927 6.3673 7.55484 6.36871 7.5885C6.39161 7.55349 6.42234 7.52082 6.45893 7.49488C6.56134 7.42228 6.67084 7.42984 6.70351 7.51177C6.73618 7.59369 6.67964 7.71895 6.57724 7.79155Z" fill="#C88A02"/>
<path fill-rule="evenodd" clip-rule="evenodd" d="M8.57364 4.0766H8.74864V4.224H8.86298V4.45734H8.74864V4.924H8.86298V5.15734H8.45752V4.924H8.57364V4.45734H8.45752V4.224H8.57364V4.0766Z" fill="#C88A02"/>
<rect x="8.5415" y="5.34399" width="0.335999" height="1.456" fill="#C88A02"/>
<path d="M7.18912 5.58784L7.18766 5.69982C6.44283 5.68248 6.01559 5.82741 5.90714 6.11626C5.79501 6.41489 5.81586 6.77791 5.97297 7.20913L5.89741 7.25807C5.72979 6.79797 5.7069 6.39938 5.83202 6.06612C5.96082 5.72308 6.41279 5.56977 7.18912 5.58784Z" fill="white"/>
<path d="M7.33332 6.58098L7.29026 6.67714C7.12806 6.54801 7.04688 6.32763 7.04688 6.02393C7.04688 5.58745 7.21551 5.3315 7.58852 5.15634C7.82659 5.04455 8.1518 5.09038 8.56506 5.29016L8.53643 5.39545C8.1397 5.20367 7.83273 5.16041 7.61643 5.26198C7.27429 5.42264 7.13088 5.64031 7.13088 6.02393C7.13088 6.29044 7.1983 6.47349 7.33332 6.58098Z" fill="white"/>
<path d="M6.07885 7.03737L5.92034 7.1116C5.75588 6.48726 5.80284 6.06324 6.08386 5.88034C6.33149 5.71917 6.69238 5.65358 7.16832 5.67929L7.16152 5.90311C6.71089 5.87876 6.37564 5.93969 6.15756 6.08163C5.97287 6.20184 5.93909 6.50683 6.07885 7.03737Z" fill="#C88A02"/>
<path d="M7.93068 5.43869C7.54657 5.43869 7.38884 5.56343 7.29873 5.93171C7.2413 6.16641 7.29699 6.36673 7.47759 6.55371L7.37455 6.73063C7.14074 6.48855 7.05831 6.19207 7.13901 5.86224C7.25385 5.39289 7.4792 5.21469 7.93068 5.21469C8.22659 5.21469 8.45711 5.31835 8.61762 5.52931L8.64265 5.56221V6.64217H8.47465V5.65795C8.34929 5.51277 8.16923 5.43869 7.93068 5.43869Z" fill="#C88A02"/>
<path d="M10.1204 5.69984L10.1219 5.81182C10.8667 5.79448 11.294 5.93941 11.4024 6.22826C11.5146 6.52689 11.4937 6.88991 11.3366 7.32113L11.4122 7.37007C11.5798 6.90997 11.6027 6.51138 11.4775 6.17812C11.3487 5.83508 10.8968 5.68177 10.1204 5.69984Z" fill="white"/>
<path d="M9.85759 6.60426L9.90066 6.70043C10.0629 6.57129 10.144 6.35092 10.144 6.04722C10.144 5.61074 9.97541 5.35478 9.6024 5.17962C9.36433 5.06783 9.03912 5.11367 8.62586 5.31345L8.65449 5.41874C9.05121 5.22696 9.35819 5.18369 9.57449 5.28526C9.91663 5.44592 10.06 5.6636 10.06 6.04722C10.06 6.31373 9.99261 6.49677 9.85759 6.60426Z" fill="white"/>
<path d="M11.283 7.14937L11.4415 7.2236C11.6059 6.59926 11.559 6.17524 11.278 5.99234C11.0303 5.83117 10.6694 5.76558 10.1935 5.79129L10.2003 6.01511C10.6509 5.99076 10.9862 6.05169 11.2043 6.19363C11.3889 6.31384 11.4227 6.61883 11.283 7.14937Z" fill="#C88A02"/>
<path d="M9.42186 5.45599C9.80597 5.45599 9.9637 5.58073 10.0538 5.94902C10.1112 6.18372 10.0555 6.38403 9.87495 6.57102L9.97799 6.74794C10.2118 6.50586 10.2942 6.20937 10.2135 5.87954C10.0987 5.41019 9.87334 5.23199 9.42186 5.23199C9.12594 5.23199 8.89543 5.33565 8.73492 5.54661L8.70989 5.57951V6.65948H8.87789V5.67525C9.00325 5.53008 9.18331 5.45599 9.42186 5.45599Z" fill="#C88A02"/>
<path opacity="0.3" fill-rule="evenodd" clip-rule="evenodd" d="M5.9375 9.26401H11.3975V15.8048C11.3975 15.8048 10.9919 18 8.6675 18C6.34308 18 5.9375 15.747 5.9375 15.747V9.26401Z" fill="#E1E5E8"/>
<mask id="mask4_61979_1891" style="mask-type:luminance" maskUnits="userSpaceOnUse" x="5" y="9" width="7" height="9">
<path fill-rule="evenodd" clip-rule="evenodd" d="M5.9375 9.26401H11.3975V15.8048C11.3975 15.8048 10.9919 18 8.6675 18C6.34308 18 5.9375 15.747 5.9375 15.747V9.26401Z" fill="white"/>
</mask>
<g mask="url(#mask4_61979_1891)">
<rect x="5.9375" y="13.296" width="2.772" height="4.368" fill="#FFC034"/>
<rect x="6.27344" y="13.52" width="0.336" height="4.144" fill="#AD1619"/>
<rect x="7.44971" y="13.52" width="0.336" height="4.144" fill="#AD1619"/>
<rect x="6.86133" y="13.52" width="0.336" height="4.144" fill="#AD1619"/>
<rect x="8.0376" y="13.52" width="0.336" height="4.144" fill="#AD1619"/>
<rect x="5.9375" y="9.15201" width="2.772" height="4.256" fill="#AD1619"/>
<rect x="8.62549" y="13.184" width="2.772" height="4.256" fill="#AD1619"/>
<rect x="8.62549" y="9.26401" width="2.94" height="4.144" fill="#F1F9FF"/>
<path fill-rule="evenodd" clip-rule="evenodd" d="M7.11339 9.60001H7.36539V10.5292H7.53339V10.0646H7.78539V10.5292H8.03739V11.1099H7.78539V12.1553H8.03739V12.736H6.52539V12.1553H6.77739V11.1099H6.52539V10.5292H6.69339V10.0646H6.94539V10.5292H7.11339V9.60001Z" fill="#C88A02"/>
<path d="M10.0674 9.79504L10.2394 9.5495L10.6006 9.99932L10.4285 10.2449L10.0674 9.79504Z" fill="#C88A02"/>
<path fill-rule="evenodd" clip-rule="evenodd" d="M11.1034 16.1401V13.688H9.00342V16.1196L9.00675 16.1385C9.11305 16.7424 9.47508 17.048 10.0534 17.048C10.6312 17.048 10.9932 16.7503 11.0999 16.1595L11.1034 16.1401ZM10.0534 16.712C9.58939 16.712 9.33598 16.5036 9.25542 16.0799V14.024H10.8514V16.0994C10.7711 16.5092 10.5176 16.712 10.0534 16.712Z" fill="#FFC034"/>
<path fill-rule="evenodd" clip-rule="evenodd" d="M10.1404 13.8929H9.96539V15.0046L9.27553 14.0042L9.15186 14.1558L9.77574 15.0605H9.21047V15.3965H9.6447H9.78949L9.15186 16.3212L9.27553 16.4728L9.96539 15.4724V16.7718H10.1404V15.5893L10.7496 16.4728L10.8733 16.3212L10.2357 15.3965H10.9474V15.0605H10.2494L10.8733 14.1558L10.7496 14.0042L10.1404 14.8877V13.8929Z" fill="#FFC034"/>
<path fill-rule="evenodd" clip-rule="evenodd" d="M10.4454 17.4427C10.4454 17.4427 8.66622 17.6292 8.66622 16.0992C8.66622 16.0992 8.64925 17.4427 6.7915 17.4427V18.6505H10.4454V17.4427Z" fill="#F1F9FF"/>
<path fill-rule="evenodd" clip-rule="evenodd" d="M8.6676 14.192C9.01554 14.192 9.2976 13.7909 9.2976 13.296C9.2976 12.8012 9.01554 12.4 8.6676 12.4C8.31966 12.4 8.0376 12.8012 8.0376 13.296C8.0376 13.7909 8.31966 14.192 8.6676 14.192Z" fill="#005BBF" stroke="#AD1619" stroke-width="1.16667"/>
</g>
</g>
</g>
</g>
<rect x="0.333496" width="24" height="24" rx="12" fill="url(#paint0_linear_61979_1891)" style="mix-blend-mode:overlay"/>
<rect x="0.833496" y="0.5" width="23" height="23" rx="11.5" stroke="black" stroke-opacity="0.1"/>
<defs>
<linearGradient id="paint0_linear_61979_1891" x1="12.3335" y1="0" x2="12.3335" y2="24" gradientUnits="userSpaceOnUse">
<stop stop-color="white" stop-opacity="0.7"/>
<stop offset="1" stop-opacity="0.3"/>
</linearGradient>
<clipPath id="clip0_61979_1891">
<rect x="0.333496" width="24" height="24" rx="12" fill="white"/>
</clipPath>
</defs>
</svg>
