<svg width="33" height="32" viewBox="0 0 33 32" fill="none" xmlns="http://www.w3.org/2000/svg">
<mask id="mask0_59927_14755" style="mask-type:luminance" maskUnits="userSpaceOnUse" x="3" y="2" width="27" height="29">
<path d="M29.3698 13.9893H16.8061V19.262H24.0379C23.3637 22.6118 20.5446 24.5348 16.8061 24.5348C12.3936 24.5348 8.83897 20.9369 8.83897 16.4706C8.83897 12.0043 12.3936 8.40642 16.8061 8.40642C18.706 8.40642 20.422 9.08879 21.7703 10.2054L25.6926 6.2353C23.3025 4.12621 20.2382 2.82353 16.8061 2.82353C9.32926 2.82353 3.32324 8.90268 3.32324 16.4706C3.32324 24.0385 9.32926 30.1176 16.8061 30.1176C23.5476 30.1176 29.6762 25.1551 29.6762 16.4706C29.6762 15.6642 29.5536 14.7957 29.3698 13.9893Z" fill="white"/>
</mask>
<g mask="url(#mask0_59927_14755)">
<path d="M2.09766 24.5348V8.40642L12.5163 16.4706L2.09766 24.5348Z" fill="#FBBC05"/>
</g>
<mask id="mask1_59927_14755" style="mask-type:luminance" maskUnits="userSpaceOnUse" x="3" y="2" width="27" height="29">
<path d="M29.3698 13.9893H16.8061V19.262H24.0379C23.3637 22.6118 20.5446 24.5348 16.8061 24.5348C12.3936 24.5348 8.83897 20.9369 8.83897 16.4706C8.83897 12.0043 12.3936 8.40642 16.8061 8.40642C18.706 8.40642 20.422 9.08879 21.7703 10.2054L25.6926 6.2353C23.3025 4.12621 20.2382 2.82353 16.8061 2.82353C9.32926 2.82353 3.32324 8.90268 3.32324 16.4706C3.32324 24.0385 9.32926 30.1176 16.8061 30.1176C23.5476 30.1176 29.6762 25.1551 29.6762 16.4706C29.6762 15.6642 29.5536 14.7957 29.3698 13.9893Z" fill="white"/>
</mask>
<g mask="url(#mask1_59927_14755)">
<path d="M2.09766 8.40642L12.5163 16.4706L16.8063 12.6867L31.5149 10.2674V1.58289H2.09766V8.40642Z" fill="#EA4335"/>
</g>
<mask id="mask2_59927_14755" style="mask-type:luminance" maskUnits="userSpaceOnUse" x="3" y="2" width="27" height="29">
<path d="M29.3698 13.9893H16.8061V19.262H24.0379C23.3637 22.6118 20.5446 24.5348 16.8061 24.5348C12.3936 24.5348 8.83897 20.9369 8.83897 16.4706C8.83897 12.0043 12.3936 8.40642 16.8061 8.40642C18.706 8.40642 20.422 9.08879 21.7703 10.2054L25.6926 6.2353C23.3025 4.12621 20.2382 2.82353 16.8061 2.82353C9.32926 2.82353 3.32324 8.90268 3.32324 16.4706C3.32324 24.0385 9.32926 30.1176 16.8061 30.1176C23.5476 30.1176 29.6762 25.1551 29.6762 16.4706C29.6762 15.6642 29.5536 14.7957 29.3698 13.9893Z" fill="white"/>
</mask>
<g mask="url(#mask2_59927_14755)">
<path d="M2.09766 24.5348L20.4834 10.2674L25.325 10.8877L31.5149 1.58289V31.3583H2.09766V24.5348Z" fill="#34A853"/>
</g>
<mask id="mask3_59927_14755" style="mask-type:luminance" maskUnits="userSpaceOnUse" x="3" y="2" width="27" height="29">
<path d="M29.3698 13.9893H16.8061V19.262H24.0379C23.3637 22.6118 20.5446 24.5348 16.8061 24.5348C12.3936 24.5348 8.83897 20.9369 8.83897 16.4706C8.83897 12.0043 12.3936 8.40642 16.8061 8.40642C18.706 8.40642 20.422 9.08879 21.7703 10.2054L25.6926 6.2353C23.3025 4.12621 20.2382 2.82353 16.8061 2.82353C9.32926 2.82353 3.32324 8.90268 3.32324 16.4706C3.32324 24.0385 9.32926 30.1176 16.8061 30.1176C23.5476 30.1176 29.6762 25.1551 29.6762 16.4706C29.6762 15.6642 29.5536 14.7957 29.3698 13.9893Z" fill="white"/>
</mask>
<g mask="url(#mask3_59927_14755)">
<path d="M31.5145 31.3583L12.5159 16.4706L10.0645 14.6096L31.5145 8.40642V31.3583Z" fill="#4285F4"/>
</g>
</svg>
